<svg xmlns="http://www.w3.org/2000/svg" width="44" height="44" viewBox="0 0 44 44">
  <path fill="#041330" fill-rule="evenodd" d="M23.5,26.9852814 L27.4246212,23.0606602 C28.0104076,22.4748737 28.9601551,22.4748737 29.5459415,23.0606602 C30.131728,23.6464466 30.131728,24.5961941 29.5459415,25.1819805 L23.1819805,31.5459415 C22.8077108,31.9202113 22.284866,32.0553532 21.8033009,31.9513673 C21.3217357,32.0553532 20.798891,31.9202113 20.4246212,31.5459415 L14.0606602,25.1819805 C13.4748737,24.5961941 13.4748737,23.6464466 14.0606602,23.0606602 C14.6464466,22.4748737 15.5961941,22.4748737 16.1819805,23.0606602 L20.5,27.3786797 L20.5,5.5 C20.5,4.67157288 21.1715729,4 22,4 C22.8284271,4 23.5,4.67157288 23.5,5.5 L23.5,26.9852814 Z M11,0 L33,0 L11,0 Z M41,28 L41,32 C41,36.418278 37.418278,40 33,40 L11,40 C6.581722,40 3,36.418278 3,32 L3,28 L6,28 L6,32 C6,34.7614237 8.23857625,37 11,37 L33,37 C35.7614237,37 38,34.7614237 38,32 L38,28 L41,28 Z"/>
</svg>
