<svg xmlns="http://www.w3.org/2000/svg" width="30" height="30" viewBox="0 0 30 30">
  <path fill="#FFF" d="M24.903514,22.7821937 L29.131728,27.0104076 C29.7175144,27.5961941 29.7175144,28.5459415 29.131728,29.131728 C28.5459415,29.7175144 27.5961941,29.7175144 27.0104076,29.131728 L22.7821937,24.903514 C20.3804747,26.8404162 17.325655,28 14,28 C6.2680135,28 0,21.7319865 0,14 C0,6.2680135 6.2680135,0 14,0 C21.7319865,0 28,6.2680135 28,14 C28,17.325655 26.8404162,20.3804747 24.903514,22.7821937 Z M14,25 C20.0751322,25 25,20.0751322 25,14 C25,7.92486775 20.0751322,3 14,3 C7.92486775,3 3,7.92486775 3,14 C3,20.0751322 7.92486775,25 14,25 Z"/>
</svg>
